<svg xmlns="http://www.w3.org/2000/svg" viewBox="0 0 98 98"><defs><style>.cls-1{fill:#221f1f;}.cls-2,.cls-3{fill:#fff;}.cls-3{fill-rule:evenodd;opacity:0.11;}</style></defs><title>libvcs</title><g id="Layer_2" data-name="Layer 2"><g id="Layer_1-2" data-name="Layer 1"><circle class="cls-1" cx="49" cy="49" r="49"/><polygon class="cls-2" points="4.92 55.47 14.98 42.53 25.57 55.47 4.92 55.47"/><polygon class="cls-2" points="72.43 42.53 82.5 55.47 93.09 42.53 72.43 42.53"/><path class="cls-2" d="M48.62,12.25A36.74,36.74,0,0,0,13.92,37h5.66A31.42,31.42,0,0,1,80,48.25a20.76,20.76,0,0,1,5.18-2.53A36.74,36.74,0,0,0,48.62,12.25Z"/><path class="cls-2" d="M77.71,60.89A31.43,31.43,0,0,1,17.19,49c0-.43,0-.87,0-1.3-1.74.19-3.71-.08-5.31,0,0,.42,0,.84,0,1.27a36.73,36.73,0,0,0,71.5,11.89Z"/><path class="cls-3" d="M94.92,58.62a30.75,30.75,0,0,0-2.32-5.69c1.15-1.77,2.24-2.95,3.48-4.54.4-.51,1.16-1.32,1.84-2.2a49.35,49.35,0,0,0-.7-5.92l-.3-.32A77,77,0,0,0,91.12,34c-1-.91-2.19-2.4-3.48-2.43s-1.79.84-2.64,1.48c-2.56,1.92-4.84,3.62-7.28,5.27-1.57-.89-3.47-1.45-5.17-2.21-.31-2-.59-3.69-1-6-.25-1.63-.16-4.63-1.16-5.8s-4.7-.74-7.38-.74a71.76,71.76,0,0,0-7.38,0c-2.56.31-2.56,3.84-3,6.33-.36,2.28-.54,4.27-.84,6.33a35.2,35.2,0,0,0-5.38,2.22C44,36.55,42.11,35,39.65,33.09c-.71-.55-1.69-1.48-2.63-1.48-1.23,0-2.89,1.49-3.69,2.21a70.94,70.94,0,0,0-5.91,6.12c-.86,1-2.46,2.31-2.43,3.59,0,1,1,1.78,1.58,2.53a68.26,68.26,0,0,1,5.27,7.07,39,39,0,0,0-2.32,5.27c-1.68.26-3.69.64-5.8,1-1.9.28-4.58.2-5.8,1.05s-.84,5.22-.84,7.8c0,2.15-.53,6.57.21,8.12.54,1.13,2.07,1.16,3.48,1.37,3.21.47,5.66.77,8.75,1.27a28.59,28.59,0,0,0,2.43,5.8c-1.27,1.69-2.25,3-3.48,4.64-.6.78-1.71,1.77-2.45,2.87a49.08,49.08,0,0,0,43.4,1.27,25.71,25.71,0,1,1,12.89-8.62A48.93,48.93,0,0,0,97,59C96.29,58.87,95.61,58.75,94.92,58.62Z"/></g></g></svg>