<?xml version="1.0" encoding="UTF-8" standalone="no"?>
<!-- Created with Inkscape (http://www.inkscape.org/) -->

<svg
   width="512"
   height="512"
   viewBox="0 0 135.46667 135.46667"
   version="1.1"
   id="svg5"
   inkscape:version="1.2.1 (9c6d41e410, 2022-07-14)"
   sodipodi:docname="libvcs.svg"
   inkscape:export-filename="libvcs.png"
   inkscape:export-xdpi="96"
   inkscape:export-ydpi="96"
   xmlns:inkscape="http://www.inkscape.org/namespaces/inkscape"
   xmlns:sodipodi="http://sodipodi.sourceforge.net/DTD/sodipodi-0.dtd"
   xmlns="http://www.w3.org/2000/svg"
   xmlns:svg="http://www.w3.org/2000/svg"
   xmlns:rdf="http://www.w3.org/1999/02/22-rdf-syntax-ns#"
   xmlns:cc="http://creativecommons.org/ns#"
   xmlns:dc="http://purl.org/dc/elements/1.1/">
  <title
     id="title215">libvcs</title>
  <sodipodi:namedview
     id="namedview7"
     pagecolor="#505050"
     bordercolor="#000000"
     borderopacity="1"
     inkscape:pageshadow="0"
     inkscape:pageopacity="0"
     inkscape:pagecheckerboard="true"
     inkscape:document-units="mm"
     showgrid="false"
     inkscape:showpageshadow="false"
     showborder="true"
     borderlayer="true"
     inkscape:zoom="0.94867184"
     inkscape:cx="168.12979"
     inkscape:cy="174.98148"
     inkscape:window-width="1428"
     inkscape:window-height="931"
     inkscape:window-x="941"
     inkscape:window-y="224"
     inkscape:window-maximized="0"
     inkscape:current-layer="layer1"
     inkscape:deskcolor="#505050" />
  <defs
     id="defs2">
    <linearGradient
       x1="-0.29159656"
       y1="3.7747583e-15"
       x2="1"
       y2="0"
       gradientUnits="userSpaceOnUse"
       gradientTransform="matrix(0,67.63151,-67.63151,0,104.41712,78.165762)"
       spreadMethod="pad"
       id="linearGradient1223">
      <stop
         style="stop-opacity:1;stop-color:#adadad"
         offset="0"
         id="stop1219" />
      <stop
         style="stop-opacity:1;stop-color:#2f2e2e"
         offset="1"
         id="stop1221" />
    </linearGradient>
    <linearGradient
       x1="-1.0933492"
       y1="2.1316282e-14"
       x2="1"
       y2="0"
       gradientUnits="userSpaceOnUse"
       gradientTransform="matrix(0,41.305517,-41.305517,0,94.412207,128.26021)"
       spreadMethod="pad"
       id="linearGradient1255">
      <stop
         style="stop-opacity:1;stop-color:#acacac"
         offset="0"
         id="stop1251" />
      <stop
         style="stop-opacity:1;stop-color:#706e6f"
         offset="1"
         id="stop1253" />
    </linearGradient>
  </defs>
  <g
     inkscape:label="Layer 1"
     inkscape:groupmode="layer"
     id="layer1"
     transform="translate(-45.411955,-68.2879)">
    <path
       d="m 180.87851,136.02017 c 0,37.40758 -30.3252,67.73227 -67.73344,67.73227 -37.407905,0 -67.733117,-30.32469 -67.733117,-67.73227 0,-37.407254 30.325212,-67.73227 67.733117,-67.73227 37.40824,0 67.73344,30.325016 67.73344,67.73227"
       style="fill:#231f1e;fill-opacity:1;fill-rule:nonzero;stroke:none;stroke-width:0.264582"
       id="Circle-object-shape"
       inkscape:label="Circle-object-shape">
      <title
         id="title2462">Circle object (shape)</title>
    </path>
    <g
       id="Gear-object-Group"
       inkscape:label="Gear-object-Group"
       transform="matrix(1.2447326,0,0,1.244711,-11.113788,-16.7108)"
       style="stroke-width:0.803393">
      <title
         id="title1863">Gear object (Group)</title>
      <path
         d="m 107.84563,94.393541 c -0.6559,0 -1.28058,0.15875 -1.82827,0.441854 v 0 c -0.0794,0.03969 -0.1561,0.08493 -0.23018,0.129911 v 0 c -0.0876,0.05239 -0.16934,0.108214 -0.25136,0.166423 v 0 c -0.0926,0.06615 -0.18256,0.137583 -0.26987,0.211666 v 0 c -0.0476,0.03969 -0.0926,0.07937 -0.13785,0.121709 v 0 c -0.10292,0.0926 -0.19817,0.195791 -0.29078,0.301625 v 0 0.0026 c -0.11377,0.127264 -0.21431,0.264583 -0.30956,0.407458 v 0 c -0.0476,0.07408 -0.0926,0.148166 -0.13494,0.22225 v 0 c -0.10054,0.179916 -0.18785,0.365125 -0.26194,0.558271 v 0 c -0.0185,0.05027 -0.0368,0.0979 -0.0532,0.148166 v 0 c -0.12144,0.362744 -0.19023,0.748771 -0.20082,1.150938 v 0 l -0.21404,8.490478 c -0.006,0.16404 -0.0212,0.32543 -0.0479,0.48418 v 0 c -0.0135,0.0688 -0.0265,0.13759 -0.0421,0.20373 v 0 c -0.0505,0.20109 -0.12197,0.39423 -0.20664,0.5768 v 0 c -0.058,0.12435 -0.12409,0.24368 -0.19579,0.35983 v 0 c -0.045,0.0714 -0.0953,0.14023 -0.14526,0.20902 v 0 c -0.10081,0.13494 -0.21193,0.25929 -0.33628,0.37835 v 0 c -0.30163,0.29634 -0.67205,0.53182 -1.08771,0.68792 v 0 c -1.066,0.39688 -2.105815,0.84138 -3.124461,1.32821 v 0 c -1.187715,0.5715 -2.606146,0.35189 -3.563938,-0.55563 v 0 l -5.971646,-5.67795 c -1.561041,-1.48432 -4.01902,-1.45257 -5.54011,0.0688 v 0 l -9.371806,9.37154 c -0.251354,0.25135 -0.463021,0.52917 -0.635,0.8255 v 0 c -0.05821,0.10054 -0.108479,0.20108 -0.156104,0.30427 v 0 c -0.02646,0.0582 -0.05292,0.11642 -0.07673,0.17727 v 0 c -0.0926,0.23283 -0.164042,0.4736 -0.214313,0.71993 v 0 c -0.0026,0.005 -0.0026,0.0103 -0.0026,0.0156 v 0 c -0.02646,0.12436 -0.04233,0.24871 -0.05292,0.37571 v 0 c -0.01587,0.16669 -0.02117,0.33338 -0.01587,0.50006 v 0 c -0.0026,0.037 0,0.0741 0.0026,0.11113 v 0 c -0.0026,0.0106 0,0.0212 0,0.0318 v 0 c -0.0079,0.13229 -0.0079,0.26458 0,0.39661 v 0 c -0.0079,0.14314 -0.0079,0.28601 0,0.43153 v 0 c -0.0079,0.14261 -0.0079,0.28549 0,0.42863 v 0 c -0.0079,0.14287 -0.0079,0.28575 0,0.43127 v 0 c -0.0079,0.14287 -0.0079,0.28575 0,0.42862 v 0 c -0.0079,0.14288 -0.0079,0.28575 0,0.43128 v 0 c -0.0079,0.14287 -0.0079,0.28575 0,0.42862 v 0 c -0.05556,1.0504 0.301625,2.12196 1.082145,2.94217 v 0 l 5.855229,6.1595 c 0.148167,0.15584 0.278078,0.32279 0.388938,0.5027 v 0 0.003 c -0.0979,0.22199 -0.193146,0.4445 -0.288396,0.66702 v 0 c -0.280458,0.67177 -0.545042,1.35175 -0.788458,2.04231 v 0 c -0.436563,1.24381 -1.595438,2.08757 -2.913063,2.12196 v 0 l -8.233833,0.20638 c -0.224896,0.006 -0.4445,0.0291 -0.656167,0.0714 v 0 h -0.0026 c -0.727605,0.14023 -1.383771,0.4789 -1.910292,0.9578 v 0 c -0.07673,0.0659 -0.150813,0.14023 -0.219604,0.21431 v 0 c -0.03969,0.0394 -0.07408,0.0794 -0.108479,0.11933 v 0 c -0.0344,0.0368 -0.06615,0.0738 -0.0926,0.1135 v 0 c -0.08996,0.11113 -0.174625,0.22754 -0.253735,0.34925 v 0 c -0.106098,0.16404 -0.198702,0.33602 -0.278077,0.51329 v 0 c -0.07937,0.17701 -0.145785,0.36248 -0.201083,0.55298 v 0 c -0.02646,0.0952 -0.05001,0.19315 -0.06879,0.29104 v 0 c -0.05027,0.25162 -0.07673,0.51065 -0.07673,0.77788 v 0 13.25271 0.006 3.43958 c 0,2.15371 1.7145,3.91319 3.868208,3.96875 v 0 l 8.490479,0.21432 c 0.116417,0.003 0.227542,0.0132 0.341048,0.0291 v 0 c 0,0 0,0.003 0.0026,0 v 0 c 0.913077,0.11933 1.722702,0.635 2.222764,1.39144 v 0 c 0,0.003 0.0026,0.003 0.0026,0.003 v 0 c 0.129646,0.1958 0.238125,0.41011 0.322792,0.63739 v 0 c 0.34925,0.93689 0.738187,1.85234 1.156229,2.75193 v 0 c -0.0026,0.003 -0.0026,0.005 -0.0053,0.008 v 0 c -0.02646,0.0426 -0.05556,0.0847 -0.08467,0.127 v 0 c -0.08731,0.12727 -0.185209,0.24898 -0.293688,0.36248 v 0 l -5.593291,5.88434 c 7.554118,3.97404 16.158104,6.22035 25.286229,6.22035 v 0 c 7.728483,0 15.078873,-1.61131 21.738173,-4.5167 v 0 c -2.23838,0.5506 -4.58021,0.83106 -6.9903,0.80989 v 0 c -2.92655,-0.0238 -5.75204,-0.50033 -8.40845,-1.36525 v 0 c -0.17727,-0.0582 -0.35455,-0.11668 -0.52917,-0.17727 v 0 c -0.17463,-0.0609 -0.34925,-0.12436 -0.52388,-0.18786 v 0 c -2.08994,-0.76438 -4.06373,-1.77535 -5.89518,-2.99243 v 0 c -0.454554,-0.30427 -0.904875,-0.62177 -1.341173,-0.95012 v 0 c -0.132291,-0.10028 -0.264583,-0.20082 -0.394493,-0.30136 v 0 c -0.195263,-0.15346 -0.391055,-0.30957 -0.584465,-0.46541 v 0 c -0.1905,-0.15927 -0.381,-0.31776 -0.568854,-0.4818 v 0 c -0.388938,-0.33338 -0.764646,-0.67998 -1.132417,-1.03981 v 0 c -0.124354,-0.11907 -0.246062,-0.23813 -0.367771,-0.35984 v 0 c -0.161395,-0.15875 -0.3175,-0.3175 -0.470958,-0.48154 v 0 c -0.145521,-0.15081 -0.28575,-0.30401 -0.428625,-0.46037 v 0 c -0.320146,-0.34661 -0.629708,-0.70115 -0.928687,-1.06627 v 0 c -0.100542,-0.12171 -0.198438,-0.24342 -0.296334,-0.36513 v 0 c -0.174625,-0.21722 -0.344223,-0.43921 -0.513291,-0.66146 v 0 c -0.01058,-0.0159 -0.02143,-0.0317 -0.0344,-0.045 v 0 c -0.127,-0.16933 -0.254,-0.34131 -0.373063,-0.51329 v 0 c -0.132291,-0.18256 -0.259027,-0.36777 -0.386291,-0.55298 v 0 c -0.129646,-0.18521 -0.254,-0.37306 -0.372798,-0.56356 v 0 c -0.119327,-0.17965 -0.233363,-0.35983 -0.344223,-0.5424 v 0 c -0.0079,-0.0103 -0.01323,-0.0185 -0.01561,-0.0291 v 0 c -0.121708,-0.19315 -0.238389,-0.38629 -0.349514,-0.58208 v 0 c -0.227542,-0.38894 -0.4445,-0.78582 -0.650875,-1.18798 v 0 c -0.08493,-0.15875 -0.164042,-0.3175 -0.243417,-0.4789 v 0 c -0.04498,-0.0847 -0.08731,-0.17462 -0.127,-0.26194 v 0 c -0.07144,-0.14287 -0.140229,-0.28839 -0.203729,-0.43391 v 0 l -0.03175,-0.0635 c -0.0926,-0.20109 -0.182563,-0.40191 -0.267229,-0.6059 v 0 c -0.0926,-0.20637 -0.177006,-0.41539 -0.261938,-0.62706 v 0 -0.005 c -0.08731,-0.2114 -0.169333,-0.42334 -0.245798,-0.63527 v 0 c -0.08228,-0.21405 -0.159279,-0.42836 -0.233362,-0.64505 v 0 c -0.07382,-0.21722 -0.147902,-0.43418 -0.216694,-0.65088 v 0 c -0.01058,-0.032 -0.02117,-0.0661 -0.03175,-0.0982 v 0 c -0.0291,-0.087 -0.05556,-0.17727 -0.08202,-0.26749 v 0 c -0.02672,-0.0897 -0.05265,-0.17965 -0.07937,-0.26961 v 0 c -0.0026,-0.0106 -0.0053,-0.0212 -0.01058,-0.0317 v 0 c -0.06323,-0.21961 -0.124619,-0.43947 -0.182562,-0.65881 v 0 c -0.06085,-0.21961 -0.116417,-0.44186 -0.166688,-0.66411 v 0 c 0,-0.003 -0.0026,-0.005 -0.0026,-0.0106 v 0 c -0.03731,-0.14552 -0.07144,-0.29104 -0.100541,-0.43656 v 0 c -0.02381,-0.10319 -0.04498,-0.20902 -0.06879,-0.31486 v 0 c -0.185208,-0.88106 -0.328083,-1.77271 -0.428625,-2.68023 v 0 c -0.04762,-0.45508 -0.08731,-0.91281 -0.116417,-1.37583 v 0 c 0.896938,-14.91721 13.337646,-26.72027 28.506212,-26.59089 v 0 c 5.96635,0.0505 11.50937,1.9767 16.06549,5.21018 v 0 l 0.003,0.002 c 2.47121,1.75154 4.64899,3.88646 6.44499,6.32089 v 0 c 3.16203,4.26773 5.15434,9.44563 5.49566,15.04421 v 0 c 0.003,0.0132 0.003,0.0238 -0.003,0.0344 v 0 c -0.0132,0.22225 -0.0291,0.44185 -0.0476,0.66145 v 0 c -0.0185,0.23019 -0.0397,0.46038 -0.0664,0.68766 v 0 c -0.0212,0.21457 -0.0476,0.42862 -0.0762,0.6432 v 0 c -0.008,0.0661 -0.0164,0.13494 -0.0267,0.19844 v 0 c -0.0212,0.1561 -0.045,0.30956 -0.0688,0.46302 v 0 c -0.0106,0.0847 -0.0236,0.16668 -0.0397,0.24606 v 0 c -0.0265,0.1614 -0.0556,0.32544 -0.0847,0.48683 v 0 c -0.0397,0.21961 -0.0823,0.43921 -0.127,0.65617 v 0 c -0.33867,1.63274 -0.81757,3.21204 -1.42611,4.72546 v 0 c -0.0661,0.1696 -0.13494,0.33602 -0.20637,0.50271 v 0 c -0.0873,0.21166 -0.17992,0.42068 -0.27517,0.6297 v 0 c -0.0955,0.20903 -0.1905,0.41566 -0.2884,0.62151 v 0 c -0.003,0.003 -0.005,0.008 -0.005,0.0108 v 0 c -0.0976,0.20373 -0.1987,0.40481 -0.30427,0.60563 v 0 c -0.10292,0.20399 -0.20902,0.40508 -0.32014,0.60616 v 0 c -0.1061,0.20108 -0.21696,0.40217 -0.33311,0.59796 v 0 c -0.11139,0.19844 -0.22781,0.39423 -0.34687,0.58737 v 0 c -0.34952,0.57415 -0.71702,1.13507 -1.10596,1.67984 v 0 c -0.0106,0.0188 -0.0238,0.0376 -0.037,0.0532 v 0 c -0.0526,0.0823 -0.11139,0.1614 -0.16934,0.24078 v 0 c 7.62794,-7.39775 13.09423,-17.018 15.35907,-27.813 v 0 c -1.25704,-0.0662 -2.3548,-0.87286 -2.79956,-2.05582 v 0 c -0.34872,-0.93636 -0.73528,-1.85208 -1.1557,-2.75166 v 0 c 0,0 0,-0.003 0.003,-0.003 v 0 c 0.10821,-0.17462 0.23521,-0.33867 0.38073,-0.49477 v 0 l 4.72281,-4.96649 c 0.008,-0.31989 0.0109,-0.6403 0.0109,-0.96282 v 0 c 0,-0.81756 -0.0188,-1.62984 -0.0561,-2.43681 v 0 c -0.127,-2.9263 -0.48657,-5.78909 -1.06071,-8.57515 v 0 l -7.37923,-7.37923 c -1.52136,-1.524 -3.97934,-1.5531 -5.54064,-0.0714 v 0 l -2.48153,2.36009 -3.67771,3.49514 c -0.1905,0.18256 -0.39925,0.33602 -0.6215,0.46302 v 0 c -0.61146,0.34396 -1.32292,0.47916 -2.01639,0.37571 v 0 c -0.29634,-0.0397 -0.59003,-0.127 -0.87048,-0.254 v 0 c -1.02421,-0.46831 -2.07434,-0.89429 -3.14616,-1.27264 v 0 c -0.41222,-0.14553 -0.78291,-0.37042 -1.09511,-0.65882 v 0 c -0.10293,-0.0953 -0.20109,-0.19579 -0.29105,-0.30427 v 0 -0.003 c -0.0738,-0.0847 -0.14022,-0.17463 -0.20108,-0.26723 v 0 c -0.12435,-0.18521 -0.22754,-0.38629 -0.31221,-0.59532 v 0 c -0.0767,-0.19314 -0.13467,-0.39422 -0.17224,-0.60325 v 0 c -0.0288,-0.15875 -0.0447,-0.32279 -0.05,-0.48683 v 0 l -0.11906,-4.77044 -0.0873,-3.463388 c -0.0106,-0.402167 -0.0794,-0.788194 -0.20109,-1.150938 v 0 c -0.0161,-0.05027 -0.0344,-0.0979 -0.0529,-0.148166 v 0 c -0.0741,-0.193146 -0.1614,-0.378355 -0.26194,-0.558271 v 0 c -0.0423,-0.07408 -0.0876,-0.148167 -0.13494,-0.22225 v 0 c -0.0955,-0.142875 -0.19579,-0.280194 -0.30956,-0.407458 v 0 -0.0026 c -0.0926,-0.105834 -0.18785,-0.209021 -0.29078,-0.301625 v 0 c -0.0452,-0.04233 -0.0905,-0.08202 -0.13784,-0.121709 v 0 c -0.0873,-0.07408 -0.17728,-0.14552 -0.26988,-0.211666 v 0 c -0.082,-0.05821 -0.16378,-0.114036 -0.25135,-0.166423 v 0 c -0.0741,-0.04498 -0.15082,-0.09022 -0.23019,-0.129911 v 0 c -0.54769,-0.283104 -1.17237,-0.441854 -1.82827,-0.441854 v 0 z"
         style="fill:#313131;fill-opacity:1;stroke:none;stroke-width:0.212564"
         id="Gear-Shadow-object-Shape"
         inkscape:label="Gear-Shadow-object-Shape">
        <title
           id="title1972">Gear Shadow object (Shape)</title>
      </path>
      <g
         id="g1195"
         transform="matrix(0.26458333,0,0,-0.26458333,35.889552,188.84979)"
         style="stroke-width:0.803393">
        <path
           d="m 432.3496,215.3398 c -1.319,3.53 -2.77,6.99 -4.359,10.38 -0.21,0.471 -0.43,0.95 -0.661,1.42 -2.16,4.5 -1.33,9.85 2.1,13.471 l 17.68,18.599 c -0.48,11.06 -1.84,21.88 -4.01,32.41 v 0.03 l -27.89,27.89 c -5.75,5.75 -15.04,5.87 -20.94,0.26 l -9.39,-8.92 -13.889,-13.21 c -0.721,-0.69 -1.521,-1.27 -2.361,-1.75 -2.319,-1.31 -5,-1.8 -7.62,-1.41 -1.119,0.16 -2.22,0.48 -3.279,0.96 -3.871,1.77 -7.84,3.37 -11.891,4.8 -1.559,0.55 -2.96,1.4 -4.139,2.47 -0.39,0.36 -0.761,0.74 -1.101,1.15 v 0.01 c -0.27,0.32 -0.52,0.66 -0.76,1.01 -0.469,0.7 -0.859,1.46 -1.179,2.25 -0.29,0.73 -0.51,1.49 -0.651,2.28 -0.109,0.6 -0.17,1.22 -0.189,1.84 l -0.45,18.03 -0.331,13.09 c -0.04,1.52 -0.299,2.98 -0.759,4.35 -0.061,0.19 -0.13,0.37 -0.201,0.56 -0.269,0.73 -0.599,1.44 -0.99,2.11 -0.16,0.28 -0.33,0.56 -0.51,0.84 -0.36,0.54 -0.74,1.06 -1.169,1.54 v 0.01 c -0.35,0.4 -0.71,0.79 -1.1,1.14 -0.171,0.16 -0.341,0.31 -0.521,0.46 -0.33,0.28 -0.669,0.55 -1.02,0.8 -0.31,0.22 -0.619,0.43 -0.949,0.63 -0.281,0.17 -0.571,0.34 -0.87,0.49 -2.071,1.09 -4.42,1.69 -6.911,1.69 h -50.08 c -2.49,0 -4.839,-0.6 -6.91,-1.69 -0.3,-0.15 -0.59,-0.32 -0.87,-0.49 -0.33,-0.2 -0.64,-0.41 -0.949,-0.63 -0.351,-0.25 -0.691,-0.52 -1.021,-0.8 -0.179,-0.15 -0.349,-0.3 -0.52,-0.46 -0.39,-0.35 -0.75,-0.74 -1.1,-1.14 v -0.01 c -0.429,-0.48 -0.809,-1 -1.17,-1.54 -0.179,-0.28 -0.349,-0.56 -0.509,-0.84 -0.391,-0.67 -0.721,-1.38 -0.991,-2.11 -0.07,-0.19 -0.139,-0.37 -0.2,-0.56 -0.46,-1.37 -0.72,-2.83 -0.76,-4.35 l -0.809,-32.09 c -0.021,-0.62 -0.08,-1.23 -0.181,-1.83 -0.05,-0.26 -0.099,-0.52 -0.159,-0.77 -0.19,-0.76 -0.461,-1.49 -0.78,-2.18 -0.22,-0.47 -0.47,-0.92 -0.741,-1.36 -0.169,-0.27 -0.36,-0.53 -0.549,-0.79 -0.391,-0.51 -0.811,-0.98 -1.271,-1.43 -1.159,-1.1 -2.55,-1.99 -4.11,-2.57 -4.03,-1.5 -7.96,-3.18 -11.81,-5.03 -4.49,-2.16 -9.849,-1.33 -13.47,2.11 l -22.57,21.46 c -5.9,5.6 -15.189,5.48 -20.939,-0.27 l -35.421,-35.41 c -0.96,-0.97 -1.759,-2.02 -2.4,-3.15 -0.219,-0.38 -0.41,-0.76 -0.589,-1.15 -0.101,-0.22 -0.201,-0.44 -0.29,-0.67 -0.371,-0.88 -0.63,-1.79 -0.811,-2.72 -0.01,-0.02 -0.01,-0.04 -0.01,-0.06 -0.099,-0.47 -0.159,-0.94 -0.2,-1.42 -0.06,-0.63 -0.08,-1.26 -0.06,-1.89 -0.009,-0.14 0,-0.28 0.01,-0.42 -0.01,-0.04 0,-0.08 0,-0.12 0.21,-3.38 1.58,-6.7 4.091,-9.34 l 22.129,-23.28 c 3.38,-3.56 4.25,-8.8 2.21,-13.26 -0.25,-0.55 -0.51,-1.109 -0.739,-1.67 v -0.01 c -0.37,-0.84 -0.731,-1.679 -1.091,-2.52 -1.07,-2.52 -2.06,-5.09 -2.98,-7.69 -1.65,-4.7 -6.029,-7.889 -11.009,-8.02 l -31.121,-0.79 c -0.85,-0.02 -1.68,-0.11 -2.49,-0.27 h -0.01 c -2.75,-0.53 -5.24,-1.82 -7.21,-3.639 -0.29,-0.25 -0.57,-0.531 -0.83,-0.811 -0.15,-0.149 -0.28,-0.3 -0.41,-0.45 -0.13,-0.14 -0.25,-0.279 -0.349,-0.43 -0.341,-0.42 -0.661,-0.86 -0.96,-1.32 -0.401,-0.62 -0.75,-1.27 -1.051,-1.94 -0.3,-0.67 -0.56,-1.37 -0.76,-2.089 -0.099,-0.361 -0.189,-0.731 -0.26,-1.101 -0.19,-0.95 -0.29,-1.93 -0.29,-2.94 v -50.089 -0.021 c 0.01,-8.12 6.491,-14.769 14.62,-14.97 l 16.01,-0.4 h 0.01 l 16.07,-0.41 c 4.901,-0.13 9.22,-3.21 10.93,-7.8 1.5,-4.019 3.181,-7.96 5.03,-11.8 0.42,-0.88 0.731,-1.79 0.93,-2.719 0.641,-3.051 0.08,-6.25 -1.59,-8.901 -0.01,-0.01 -0.01,-0.019 -0.019,-0.03 -0.101,-0.16 -0.21,-0.319 -0.321,-0.48 -0.34,-0.469 -0.71,-0.92 -1.11,-1.339 l -21.159,-22.261 c 0,-0.01 0.009,-0.01 0.019,-0.01 28.551,-15.02 61.071,-23.51 95.571,-23.51 29.21,0 56.99,6.09 82.16,17.071 0.05,0.019 0.09,0.04 0.139,0.059 -8.49,-2.099 -17.399,-3.18 -26.559,-3.099 -11.061,0.089 -21.74,1.889 -31.78,5.139 -0.67,0.22 -1.34,0.441 -2,0.67 -0.661,0.231 -1.321,0.47 -1.981,0.71 -7.899,2.91 -15.359,6.72 -22.28,11.311 -1.719,1.149 -3.42,2.349 -5.07,3.589 -0.5,0.38 -1,0.76 -1.49,1.14 -0.74,0.58 -1.479,1.17 -2.21,1.76 -0.719,0.61 -1.429,1.21 -2.13,1.82 -1.469,1.27 -2.91,2.58 -4.299,3.93 -0.471,0.45 -0.931,0.9 -1.391,1.36 -0.6,0.6 -1.19,1.21 -1.779,1.821 -0.551,0.569 -1.08,1.149 -1.62,1.739 -1.201,1.31 -2.371,2.66 -3.511,4.03 -0.38,0.46 -0.75,0.92 -1.119,1.38 -0.661,0.82 -1.301,1.66 -1.941,2.5 -0.04,0.06 -0.08,0.12 -0.13,0.17 -0.469,0.64 -0.95,1.29 -1.41,1.94 -0.5,0.69 -0.979,1.39 -1.46,2.09 -0.479,0.71 -0.95,1.42 -1.409,2.13 -0.44,0.68 -0.871,1.36 -1.291,2.05 -0.029,0.04 -0.05,0.08 -0.069,0.11 -0.451,0.731 -0.89,1.46 -1.321,2.2 -0.85,1.48 -1.67,2.97 -2.46,4.491 -0.31,0.599 -0.62,1.199 -0.92,1.809 -0.16,0.33 -0.32,0.66 -0.48,0.99 -0.26,0.54 -0.52,1.09 -0.77,1.64 l -0.12,0.24 c -0.339,0.76 -0.679,1.52 -1.009,2.29 -0.341,0.79 -0.67,1.58 -0.991,2.37 v 0.02 c -0.319,0.8 -0.63,1.601 -0.929,2.4 -0.311,0.81 -0.601,1.62 -0.881,2.44 -0.279,0.82 -0.56,1.64 -0.82,2.46 -0.04,0.12 -0.08,0.24 -0.11,0.36 v 0.01 c -0.11,0.34 -0.22,0.681 -0.32,1.011 -0.1,0.339 -0.199,0.679 -0.3,1.019 -0.01,0.04 -0.02,0.08 -0.04,0.12 -0.239,0.83 -0.47,1.66 -0.689,2.491 -0.221,0.83 -0.431,1.669 -0.63,2.509 0,0.01 -0.011,0.02 -0.011,0.04 -0.13,0.55 -0.26,1.1 -0.38,1.65 -0.09,0.39 -0.17,0.79 -0.26,1.19 -0.699,3.33 -1.24,6.7 -1.62,10.13 -0.18,1.72 -0.329,3.45 -0.439,5.2 -0.111,1.85 -0.171,3.71 -0.191,5.59 -0.51,59.83 48.1,108.44 107.93,107.93 15.381,-0.13 30.02,-3.56 43.23,-9.6 19.241,-8.79 35.47,-23.139 46.61,-40.95 10.121,-16.16 16.051,-35.189 16.22,-55.51 0.02,-2.49 -0.04,-4.96 -0.2,-7.41 0.011,-0.05 0.011,-0.09 -0.009,-0.13 -0.041,-0.84 -0.101,-1.67 -0.181,-2.5 -0.069,-0.87 -0.15,-1.74 -0.25,-2.599 -0.08,-0.811 -0.18,-1.621 -0.289,-2.431 -0.03,-0.25 -0.061,-0.51 -0.101,-0.75 -0.08,-0.59 -0.17,-1.17 -0.26,-1.75 -0.04,-0.319 -0.089,-0.63 -0.149,-0.93 -0.101,-0.62 -0.201,-1.23 -0.32,-1.84 -0.151,-0.83 -0.311,-1.66 -0.481,-2.48 -1.279,-6.17 -3.09,-12.14 -5.389,-17.859 -0.25,-0.641 -0.511,-1.271 -0.781,-1.901 -0.34,-0.8 -0.689,-1.59 -1.04,-2.38 -0.36,-0.79 -0.719,-1.57 -1.09,-2.349 -0.009,-0.011 -0.02,-0.031 -0.02,-0.04 -0.379,-0.771 -0.76,-1.531 -1.149,-2.29 -0.39,-0.771 -0.791,-1.531 -1.21,-2.29 -0.411,-0.761 -0.831,-1.511 -1.26,-2.261 -0.42,-0.75 -0.861,-1.489 -1.311,-2.22 -1.32,-2.17 -2.71,-4.29 -4.179,-6.35 -0.04,-0.07 -0.09,-0.14 -0.141,-0.2 -0.239,-0.34 -0.48,-0.679 -0.73,-1.01 -0.24,-0.33 -0.479,-0.65 -0.719,-0.98 0.269,0.351 0.529,0.7 0.789,1.05 0.011,0 0.011,0.011 0.02,0.03 28.83,27.96 49.491,64.32 58.05,105.12 0,0.01 0.01,0.01 0,0.02 -4.75,0.25 -8.899,3.301 -10.58,7.78"
           style="fill:#4f4d4d;fill-opacity:1;fill-rule:nonzero;stroke:none;stroke-width:0.803393"
           id="Gear-object-Shape"
           inkscape:label="Gear-object-Shape">
          <title
             id="title2012">Gear object (Shape)</title>
        </path>
      </g>
    </g>
    <g
       id="Arrow_1-object-Group"
       inkscape:label="Arrow 1-object-Group"
       transform="matrix(1.2447326,0,0,1.244711,-11.113788,-16.7108)"
       style="stroke-width:0.803393">
      <title
         id="title1865">Arrow 1 object (Group)</title>
      <path
         d="M 76.007529,86.855562 C 69.342674,91.551916 64.296806,98.036854 61.405175,105.61717 v 0 5.82083 h 5.728229 C 72.790195,98.875583 85.484903,90.57825 99.38082,90.57825 v 0 c 14.94605,0 27.91407,9.313068 33.02582,22.70945 v 0 l -6.09865,-0.0421 v 5.82084 l 10.43332,13.78002 10.68758,-13.63371 v -5.8211 l -7.97269,-0.055 C 136.20659,93.889245 119.32141,79.466014 99.38082,79.466014 v 0 c -8.424333,0 -16.507619,2.555611 -23.373291,7.389548"
         style="fill:url(#linearGradient1223);stroke:none;stroke-width:0.212564"
         id="Arrow-1-Shadow-object-Shape"
         inkscape:label="Arrow-1-Shadow-object-Shape">
        <title
           id="title1930">Arrow 1 Shadow object (Shape)</title>
      </path>
      <path
         d="m 139.45636,113.33657 c -3.24961,-19.447139 -20.13506,-33.8709 -40.075643,-33.8709 -8.424333,0 -16.507354,2.55614 -23.373292,7.389813 -6.664854,4.696354 -11.710458,11.181291 -14.602354,18.761607 H 67.1333 c 5.656792,-12.56242 18.3515,-20.859753 32.247417,-20.859753 17.031753,0 31.496533,12.092781 34.691903,28.541923 l -7.76446,-0.0537 10.43305,13.78003 10.6881,-13.63398 z"
         style="fill:#ffffff;fill-opacity:1;fill-rule:nonzero;stroke:none;stroke-width:0.212564"
         id="Arrow-1-object-Shape"
         inkscape:label="Arrow-1-object-Shape">
        <title
           id="title1888">Arrow 1 object (Shape)</title>
      </path>
    </g>
    <g
       id="Arrow_2-object-Group"
       inkscape:label="Arrow 2-object-Group"
       transform="matrix(1.2447326,0,0,1.244711,-11.113788,-16.7108)"
       style="stroke-width:0.803393">
      <title
         id="title2458">Arrow 2 object (Group)</title>
      <path
         d="m 51.400221,126.8685 v 5.82083 l 7.972689,0.055 c 3.249612,19.4474 20.135056,33.87116 40.075643,33.87116 v 0 c 8.424597,0 16.507357,-2.55588 23.373557,-7.38981 v 0 c 6.66459,-4.69662 11.71019,-11.18156 14.60209,-18.76187 v 0 l -5.3e-4,-5.81925 c 2.6e-4,-5.3e-4 2.6e-4,-0.001 5.3e-4,-0.002 v 0 h -5.3e-4 v -2.7e-4 h -5.72797 v 0.002 c -5.65705,12.56162 -18.35176,20.85843 -32.247147,20.85843 v 0 c -14.946047,0 -27.914335,-9.31281 -33.02582,-22.70946 v 0 l 6.098646,0.0423 v -5.8211 L 62.088064,113.23452 Z"
         style="fill:url(#linearGradient1255);stroke:none;stroke-width:0.212564"
         id="Arrow-2-Shadow-object-Shape"
         inkscape:label="Arrow-2-Shadow-object-Shape">
        <title
           id="title1932">Arrow 2 Shadow object (Shape)</title>
      </path>
      <path
         d="m 131.6961,134.64302 c -5.65679,12.56242 -18.3515,20.85975 -32.247416,20.85975 -17.031758,0 -31.496794,-12.09278 -34.692166,-28.54193 l 7.764726,0.0537 -10.433049,-13.78003 -10.687844,13.63398 7.972689,0.055 c 3.249613,19.4474 20.134792,33.8709 40.075644,33.8709 8.424336,0 16.507356,-2.55561 23.373296,-7.38982 6.66458,-4.69635 11.71045,-11.18129 14.60208,-18.7616 z"
         style="fill:#ffffff;fill-opacity:1;fill-rule:nonzero;stroke:none;stroke-width:0.212564"
         id="Arrow-2-object-Shape"
         inkscape:label="Arrow-2-object-Shape">
        <title
           id="title1890">Arrow 2 object (Shape)</title>
      </path>
    </g>
  </g>
  <metadata
     id="metadata213">
    <rdf:RDF>
      <cc:Work
         rdf:about="">
        <dc:title>libvcs</dc:title>
      </cc:Work>
    </rdf:RDF>
  </metadata>
</svg>
